<?xml version="1.0" encoding="utf-8"?>
<!-- Generator: Adobe Illustrator 16.0.0, SVG Export Plug-In . SVG Version: 6.00 Build 0)  -->
<!DOCTYPE svg PUBLIC "-//W3C//DTD SVG 1.1//EN" "http://www.w3.org/Graphics/SVG/1.1/DTD/svg11.dtd">
<svg version="1.1" id="Capa_1" xmlns="http://www.w3.org/2000/svg" xmlns:xlink="http://www.w3.org/1999/xlink" x="0px" y="0px"
	 width="20px" height="16px" viewBox="9.61 156.745 347.444 281.49" enable-background="new 9.61 156.745 347.444 281.49"
	 xml:space="preserve">
<g>
	<g>
		<path fill="#3E69E6" d="M422.789,117.379l-22.966,0.02"/>
		<path fill="#3E69E6" d="M351.981,309.981c3.366-3.519,5.076-8.12,5.073-12.657c-0.005-4.602-1.724-9.2-5.095-12.648
			L234.147,161.958c-6.68-6.959-17.581-6.95-24.373,0.021l-16.275,17.013c-6.668,6.972-6.658,18.347,0.023,25.434l60.623,63.083
			L26.821,267.71c-9.493,0.008-17.202,8.13-17.192,17.971l0.021,23.964c0.008,9.904,7.67,17.951,17.225,17.942l227.383-0.202
			l-60.511,63.255c-6.668,6.971-6.657,18.41,0.023,25.434l16.305,16.984c6.681,6.958,17.644,6.948,24.374-0.022L351.981,309.981z"/>
	</g>
</g>
</svg>
