<?xml version="1.0" encoding="utf-8"?>
<!-- Generator: Adobe Illustrator 16.0.0, SVG Export Plug-In . SVG Version: 6.00 Build 0)  -->
<!DOCTYPE svg PUBLIC "-//W3C//DTD SVG 1.1//EN" "http://www.w3.org/Graphics/SVG/1.1/DTD/svg11.dtd">
<svg version="1.1" id="Слой_1" xmlns="http://www.w3.org/2000/svg" xmlns:xlink="http://www.w3.org/1999/xlink" x="0px" y="0px"
	 width="300.005px" height="300px" viewBox="0 0 300.005 300" enable-background="new 0 0 300.005 300" xml:space="preserve">
<g>
	<defs>
		<rect id="SVGID_1_" width="300.005" height="300"/>
	</defs>
	<clipPath id="SVGID_2_">
		<use xlink:href="#SVGID_1_"  overflow="visible"/>
	</clipPath>
	<path clip-path="url(#SVGID_2_)" fill="#333333" d="M293.302,4.397C289.898,1.538,285.633,0,281.255,0l-3.272,0.291L118.599,28.416
		c-8.963,1.575-15.478,9.356-15.478,18.459v160.969c-9.516-6.899-21.863-10.969-35.569-10.969c-7.969,0-15.938,1.322-23.71,3.9
		c-17.793,5.934-32.062,17.831-39.15,32.663c-5.475,11.465-6.178,23.934-2.006,35.117C9.821,287.653,30.088,300,54.324,300
		c7.968,0,15.937-1.303,23.7-3.9c17.784-5.916,32.053-17.812,39.14-32.625c3.047-6.394,4.472-13.088,4.528-19.725h0.169v-150
		l3.263-0.272l156.131-27.553v113.794c-9.534-6.899-21.863-10.969-35.578-10.969c-7.979,0-15.947,1.322-23.71,3.9
		c-17.775,5.934-32.063,17.831-39.131,32.663c-5.476,11.465-6.188,23.934-2.016,35.117c7.144,19.098,27.394,31.444,51.638,31.444
		c7.987,0,15.946-1.303,23.709-3.9c17.774-5.916,32.044-17.813,39.132-32.625c3.056-6.394,4.49-13.087,4.527-19.725h0.179V18.75
		C300.005,13.219,297.539,7.95,293.302,4.397 M72.071,278.325c-22.463,7.491-45.685,0.187-51.835-16.294
		c-6.169-16.519,7.041-35.944,29.494-43.453c22.462-7.491,45.684-0.188,51.834,16.313
		C107.751,251.381,94.533,270.834,72.071,278.325 M280.869,46.875L121.486,75V46.875L280.869,18.75V46.875z M249.857,250.2
		c-22.472,7.491-45.703,0.187-51.844-16.294c-6.169-16.52,7.05-35.944,29.494-43.453c22.472-7.491,45.703-0.188,51.844,16.313
		C285.539,223.256,272.339,242.709,249.857,250.2"/>
</g>
</svg>
